<?xml version="1.0" ?><svg id="Capa_1" style="enable-background:new 0 0 512 512;" version="1.1" viewBox="0 0 512 512" xml:space="preserve" xmlns="http://www.w3.org/2000/svg" xmlns:xlink="http://www.w3.org/1999/xlink"><style type="text/css">
	.st0{fill:#231F20;}
</style><g><path class="st0" d="M256,236.7c5.9,0,10.7-3.9,10.7-8.6v-57.9c0-4.8-4.8-8.6-10.7-8.6c-5.9,0-10.7,3.9-10.7,8.6v57.9   C245.3,232.9,250.1,236.7,256,236.7z"/><path class="st0" d="M147.4,328.8H88.3c-4.9,0-8.8,4.8-8.8,10.6s3.9,10.7,8.8,10.7h59.1c4.9,0,8.8-4.8,8.8-10.7   C156.2,333.5,152.3,328.8,147.4,328.8z"/><path class="st0" d="M169.6,268.5c3.4,3.4,9.5,2.8,13.7-1.4c4.1-4.1,4.8-10.3,1.4-13.7l-40.9-40.9c-3.4-3.4-9.5-2.8-13.7,1.4   c-4.1,4.1-4.8,10.3-1.4,13.7L169.6,268.5z"/><path class="st0" d="M423.7,329h-59.1c-4.9,0-8.8,4.8-8.8,10.7c0,5.9,3.9,10.7,8.8,10.7h59.1c4.9,0,8.8-4.8,8.8-10.7   C432.6,333.8,428.6,329,423.7,329z"/><path class="st0" d="M342.6,268.5l40.9-40.9c3.4-3.4,2.8-9.5-1.4-13.7c-4.1-4.1-10.3-4.8-13.7-1.4l-40.9,40.9   c-3.4,3.4-2.8,9.5,1.4,13.7C333,271.3,339.2,271.9,342.6,268.5z"/><path class="st0" d="M256,252.7c-47.8,0-86.7,39-86.7,86.8c0,5.8,4.7,10.6,10.5,10.6h11.6h129.2h11.6c5.8,0,10.6-4.8,10.6-10.6   C342.8,291.7,303.9,252.7,256,252.7z M191.4,328.9c5.1-31.1,32.1-54.9,64.6-54.9c32.6,0,59.6,23.8,64.6,54.9H191.4z"/></g></svg>