<?xml version="1.0" ?><svg data-name="图层 1" id="图层_1" viewBox="0 0 500 500" xmlns="http://www.w3.org/2000/svg"><defs><style>.cls-1{fill:none;}.cls-2{fill:#231815;}</style></defs><title/><path class="cls-1" d="M387.67,293.08A130.25,130.25,0,0,1,348.5,297a59.32,59.32,0,0,1,10.29,27.68A119.81,119.81,0,0,0,387.67,293.08Z"/><path class="cls-1" d="M235.56,220.67a132.41,132.41,0,0,1-7.87-87.56,116.93,116.93,0,0,0-50.72,68,114.69,114.69,0,0,0-2,51l.38.08A82.46,82.46,0,0,1,235.56,220.67Z"/><path class="cls-1" d="M341.56,157.32c-.62,1.22-1.28,2.42-2,3.58a53.73,53.73,0,0,1-14.61,15.19,44.42,44.42,0,0,1-5.27,3.16A53.31,53.31,0,0,1,330.79,187a50.35,50.35,0,0,1,10.71,14l.59-1.07a51.17,51.17,0,0,1,13.39-15.6,51.9,51.9,0,0,1,8-5.19A52.51,52.51,0,0,1,341.56,157.32Z"/><path class="cls-2" d="M302.92,188.59c3.45,1.9,7.43,2.51,10.91,4.5A37.85,37.85,0,0,1,324,201.63a36.13,36.13,0,0,1,5.86,9.89c1.78,4.51,2.42,8.91,7.44,11a10.65,10.65,0,0,0,12.16-2.72c2.78-3.21,3.23-7.95,5.2-11.66,4.73-8.91,12.35-14.94,21.79-18.22,4.62-1.61,8.37-4,9.08-9.27a10.71,10.71,0,0,0-7.7-11.75c9.28,2.66,5.31,17.13-4,14.46a54.2,54.2,0,0,1-10.4-4.2,51.9,51.9,0,0,0-8,5.19A51.17,51.17,0,0,0,342.1,200l-.59,1.07c.46.9.91,1.8,1.31,2.72a58.94,58.94,0,0,1,2.25,5.77c1,3.07,1.32,2.06-3.54,2.06-5.9,0-4.1,1.15-3.76-1.38.41-3,2.19-6.37,3.73-9.17a50.35,50.35,0,0,0-10.71-14,53.31,53.31,0,0,0-11.13-7.79c-1.66.85-3.36,1.62-5.1,2.32-1.3.52-3.33,1.67-4.7,1.63q-2.69,1.13-.69-4v-4.15a10.81,10.81,0,0,1,2.74.83,54.23,54.23,0,0,1,7.76,3.33,44.42,44.42,0,0,0,5.27-3.16,53.73,53.73,0,0,0,14.61-15.19c.74-1.16,1.4-2.36,2-3.58a54,54,0,0,1-2.61-5.71,15.26,15.26,0,0,1-1.18-3.36l-.39-1.38h8.31c0,1.41-1.08,3.47-1.57,4.73a61.86,61.86,0,0,1-2.55,5.71,52.51,52.51,0,0,0,21.93,21.87c.63-.33,1.27-.66,1.92-1,1-.48,2.11-.92,3.18-1.35-.19-4.58,3.52-9.51,9.29-8a37.08,37.08,0,0,1-21-15c-4.32-6.59-5-18.48-14.87-18.87-10.58-.41-11.3,12.07-15.76,18.87a37.25,37.25,0,0,1-19.66,14.61c-4.12,1.38-7.58,3.31-8.83,7.84A10.73,10.73,0,0,0,302.92,188.59Z"/><path class="cls-2" d="M341.53,211.6c4.86,0,4.53,1,3.54-2.06a58.94,58.94,0,0,0-2.25-5.77c-.41-.92-.85-1.82-1.31-2.72-1.54,2.8-3.32,6.16-3.73,9.17C337.43,212.75,335.63,211.6,341.53,211.6Z"/><path class="cls-2" d="M368.59,176.89c.63-.25,1.26-.5,1.9-.73a10.41,10.41,0,0,1,2-.68c5.59-.67-2,7,1.38,7.91,9.3,2.66,13.27-11.81,4-14.46C372.12,167.38,368.4,172.3,368.59,176.89Z"/><path class="cls-2" d="M372.51,175.48a10.41,10.41,0,0,0-2,.68c-.64.23-1.27.48-1.9.73a6.79,6.79,0,0,0,5.3,6.51C370.56,182.5,378.1,174.81,372.51,175.48Z"/><path class="cls-2" d="M309.17,175.09v4.15q-2,5.08.69,4c1.37,0,3.4-1.11,4.7-1.63,1.74-.7,3.44-1.46,5.1-2.32a54.23,54.23,0,0,0-7.76-3.33A10.81,10.81,0,0,0,309.17,175.09Z"/><path class="cls-2" d="M345.68,146.88h-8.31l.39,1.38a15.26,15.26,0,0,0,1.18,3.36,54,54,0,0,0,2.61,5.71,61.86,61.86,0,0,0,2.55-5.71C344.6,150.35,345.69,148.29,345.68,146.88Z"/><path class="cls-2" d="M368.59,176.89c-1.07.42-2.13.87-3.18,1.35-.66.3-1.29.63-1.92,1a54.2,54.2,0,0,0,10.4,4.2A6.79,6.79,0,0,1,368.59,176.89Z"/><path class="cls-2" d="M396.56,276.25a123.41,123.41,0,0,1-8.88,16.82A127.78,127.78,0,0,0,405,287.27Z"/><path class="cls-2" d="M175,252.17a114.69,114.69,0,0,1,2-51,116.93,116.93,0,0,1,50.72-68,127.86,127.86,0,0,1,5.81-17.37l11,8.47a122.29,122.29,0,0,0-16.83,8.9,132.41,132.41,0,0,0,7.87,87.56,82.58,82.58,0,0,1,17.06.8A118.52,118.52,0,0,1,248,119.73c2.86-6.84-5.89-10.69-11-8.47a131.17,131.17,0,0,0-77.68,139.17A71.12,71.12,0,0,1,175,252.17Z"/><path class="cls-2" d="M233.5,115.74a127.86,127.86,0,0,0-5.81,17.37,122.29,122.29,0,0,1,16.83-8.9Z"/><path class="cls-2" d="M401,272.8a119.18,119.18,0,0,1-71.63,6.5A60.34,60.34,0,0,1,348.5,297a130.25,130.25,0,0,0,39.18-3.94,123.41,123.41,0,0,0,8.88-16.82l8.47,11a127.78,127.78,0,0,1-17.35,5.81,119.81,119.81,0,0,1-28.89,31.62c.15,1.45.25,2.91.3,4.38a57.25,57.25,0,0,1-1.45,14.42,132.16,132.16,0,0,0,51.88-59.67C411.71,278.73,407.86,270,401,272.8Z"/><path class="cls-2" d="M175.4,252.26l-.29.38q.27,1.43.58,2.85l4.68-1.91C178.73,253.08,177.07,252.64,175.4,252.26Z"/><path class="cls-2" d="M351.58,329.73q3.7-2.38,7.2-5A59.32,59.32,0,0,0,348.5,297q-5-.26-10-.89A51.54,51.54,0,0,1,351.58,329.73Z"/><path class="cls-2" d="M307.29,272.05l1.25.56a7.7,7.7,0,0,1,3.63,0c1.26.27,2.5.6,3.73,1-10-26.34-33.17-46.79-61.3-51.73-.66-.12-1.32-.21-2-.31q2.37,4.41,5.13,8.64A73.86,73.86,0,0,1,307.29,272.05Z"/><path class="cls-2" d="M299.85,382.26H159.2a62.23,62.23,0,0,1,0-124.47l1.35,0q-.74-3.67-1.28-7.39a70.2,70.2,0,0,0-48,18.92c-16.93,15.9-24.48,39.55-20.82,62.36a69.75,69.75,0,0,0,38.58,51.19c11.68,5.47,23.78,6.86,36.45,6.86H289c9.8,0,19.5.28,29-2.82a60.27,60.27,0,0,0,39.69-43.45q-4.56,2.81-9.34,5.24A51.76,51.76,0,0,1,299.85,382.26Z"/><path class="cls-2" d="M175,252.17l.09.47.29-.38Z"/><path class="cls-2" d="M329.41,279.3a58.81,58.81,0,0,0-13.5-5.78q.42,1.11.82,2.24A117.38,117.38,0,0,0,329.41,279.3Z"/><path class="cls-2" d="M308.55,272.62q4,1.73,8.18,3.14-.39-1.13-.82-2.24c-1.23-.35-2.47-.68-3.73-1A7.7,7.7,0,0,0,308.55,272.62Z"/><path class="cls-2" d="M239.1,227.91c-1.26-2.38-2.43-4.8-3.54-7.24a82.46,82.46,0,0,0-60.16,31.59c1.66.38,3.32.82,5,1.33l-4.68,1.91q.53,2.44,1.16,4.86c.51.15,1,.3,1.53.46A73.62,73.62,0,0,1,239.1,227.91Z"/><path class="cls-2" d="M308.55,272.62l-1.25-.56.36.86A7,7,0,0,1,308.55,272.62Z"/><path class="cls-2" d="M176.85,260.36q-.63-2.42-1.16-4.86L171.9,257c1-1.51,2.1-3,3.21-4.39l-.09-.47a71.12,71.12,0,0,0-15.76-1.74q.53,3.71,1.28,7.39A62.12,62.12,0,0,1,176.85,260.36Z"/><path class="cls-2" d="M359.08,329.07c0-1.47-.15-2.93-.3-4.38q-3.5,2.65-7.2,5c0,.26,0,.52,0,.79a51.62,51.62,0,0,1-3.31,18.22q4.78-2.43,9.34-5.24A57.25,57.25,0,0,0,359.08,329.07Z"/><path class="cls-2" d="M310.19,279.8a51.33,51.33,0,0,1,7.39,2.1,7.08,7.08,0,0,0-.16-4.09c-.22-.69-.46-1.37-.69-2.05q-4.14-1.42-8.18-3.14a7,7,0,0,0-.89.3A73.11,73.11,0,0,1,310.19,279.8Z"/><path class="cls-2" d="M317.42,277.81a7.08,7.08,0,0,1,.16,4.09,51.82,51.82,0,0,1,20.93,14.23q5,.63,10,.89a60.34,60.34,0,0,0-19.09-17.71,117.38,117.38,0,0,1-12.68-3.55C317,276.44,317.2,277.12,317.42,277.81Z"/><path class="cls-2" d="M235.56,220.67c1.11,2.44,2.28,4.86,3.54,7.24h.67a73.86,73.86,0,0,1,18,2.21q-2.76-4.22-5.13-8.64A82.58,82.58,0,0,0,235.56,220.67Z"/><path class="cls-2" d="M171.9,257l3.79-1.54q-.31-1.42-.58-2.85C174,254.07,172.93,255.53,171.9,257Z"/><path class="cls-2" d="M184.86,264.61a67.12,67.12,0,0,1,58.56-29.16q-2.28-3.7-4.31-7.54a73.62,73.62,0,0,0-60.72,32.91c-.51-.16-1-.31-1.53-.46q1,4,2.36,7.93A8.34,8.34,0,0,0,184.86,264.61Z"/><path class="cls-2" d="M323.46,293.31A43.62,43.62,0,0,1,344,327.64a44.79,44.79,0,0,1-.13,6.61q3.94-2.11,7.69-4.52a51.54,51.54,0,0,0-13.07-33.6A133.54,133.54,0,0,1,323.46,293.31Z"/><path class="cls-2" d="M295.51,266a116.42,116.42,0,0,0,11.79,6,73.86,73.86,0,0,0-49.54-41.94,116.62,116.62,0,0,0,7.81,10.58A67.18,67.18,0,0,1,295.51,266Z"/><path class="cls-2" d="M315.84,371.82c-8.12,3.11-16.25,2.95-24.72,2.95H175.66c-5.48,0-11,.05-16.45,0a54.77,54.77,0,0,1-43.91-87.49c11.19-15.07,29-22.65,47.07-21.7q-1-3.84-1.82-7.75l-1.35,0a62.23,62.23,0,0,0,0,124.47H299.85a51.76,51.76,0,0,0,48.44-33.53q-5.29,2.69-10.83,4.91A43.61,43.61,0,0,1,315.84,371.82Z"/><path class="cls-2" d="M252,236.51a66.91,66.91,0,0,1,13.55,4.19,116.62,116.62,0,0,1-7.81-10.58,73.86,73.86,0,0,0-18-2.21h-.67q2,3.83,4.31,7.54A62.68,62.68,0,0,1,252,236.51Z"/><path class="cls-2" d="M303,281.79l-.07-.2a6.35,6.35,0,0,0,5.31,5.44,47,47,0,0,1,15.27,6.28,133.54,133.54,0,0,0,15,2.81,51.82,51.82,0,0,0-20.93-14.23C315.9,288,305.4,289.44,303,281.79Z"/><path class="cls-2" d="M302.89,281.6a8.32,8.32,0,0,1,4.77-8.68l-.36-.86a116.42,116.42,0,0,1-11.79-6A66.53,66.53,0,0,1,302.89,281.6Z"/><path class="cls-2" d="M176.39,268.05a6.58,6.58,0,0,0,2.82.23q-1.32-3.92-2.36-7.93a62.12,62.12,0,0,0-16.3-2.54q.79,3.9,1.82,7.75A57.87,57.87,0,0,1,176.39,268.05Z"/><path class="cls-2" d="M337.46,353.65q5.53-2.2,10.83-4.91a51.62,51.62,0,0,0,3.31-18.22c0-.26,0-.52,0-.79q-3.75,2.41-7.69,4.52A45.46,45.46,0,0,1,337.46,353.65Z"/><path class="cls-2" d="M307.66,272.91a8.32,8.32,0,0,0-4.77,8.68l.07.2c2.45,7.65,12.95,6.18,14.63.1a51.33,51.33,0,0,0-7.39-2.1A73.11,73.11,0,0,0,307.66,272.91Z"/></svg>