<svg width="48" height="48" viewBox="0 0 48 48" fill="none" xmlns="http://www.w3.org/2000/svg">
<path d="M23.224 13.542C25.72 10.682 27.991 8.41199 26.925 7.26199C25.859 6.11199 8.613 12.515 9.586 14.187C10.166 15.183 25.575 26.365 27.095 27.265C28.88 28.321 31.748 27.085 31.495 25.121L29.168 7.10999C29.168 7.10999 30.346 8.69199 30.71 9.78499M35.084 26.507C34.832 24.544 32.757 8.49499 32.757 8.49499C32.757 8.49499 33.935 10.077 34.299 11.171" stroke="black" stroke-width="1.7" stroke-linecap="round" stroke-linejoin="round"/>
<path d="M28.383 33.87C28.383 27.652 26.293 13.859 26.293 13.859C26.293 13.859 27.471 15.44 27.836 16.534M22.07 14.547C21.706 13.453 20.529 11.871 20.529 11.871C20.529 11.871 21.122 19.079 24.57 20.509C15.324 16.03 10.923 30.687 6.928 26.397C4.077 23.337 9.198 19.037 9.198 19.037" stroke="black" stroke-width="1.7" stroke-linecap="round" stroke-linejoin="round"/>
<path d="M37.916 14.03C37.551 12.937 36.374 11.355 36.374 11.355C36.374 11.355 38.4 29.25 38.832 33.87C39.037 36.071 34.958 37.08 33.444 33.38C31.93 29.68 33.318 28.627 34.243 28.627C35.168 28.627 36.683 31.711 34.243 33.141C31.803 34.571 27.738 35.609 26.505 37.038C25.272 38.467 23.112 41.748 21.682 41.748C20.252 41.748 17.449 40.207 20.645 33.87M41.449 31.15C41.196 27.87 39.486 14.58 39.486 14.58C39.486 14.58 40.664 16.161 41.028 17.255M13.993 8.94399C15.717 7.87099 19.271 7.19899 21.121 5.74799M8.981 27.193C6.682 29.72 7.327 34.85 10.02 34.01C11.025 33.696 12.235 31.606 14.253 30.702C17.64 29.186 21.972 28.412 21.711 25.992C21.375 22.866 18.375 21.047 18.375 21.047" stroke="black" stroke-width="1.7" stroke-linecap="round" stroke-linejoin="round"/>
<path d="M25.818 29.019C24.381 28.384 23.911 27.652 23.911 27.652C25.075 30.252 25.972 31.836 26.001 33.084C26.03 34.332 19.594 38.32 16.831 38.32C13.615 38.32 11.261 36.008 12.175 32.17M10.135 14.735C8.021 15.715 6.71 20.352 8.322 19.884" stroke="black" stroke-width="1.7" stroke-linecap="round" stroke-linejoin="round"/>
<path d="M24 45.5C35.8741 45.5 45.5 35.8741 45.5 24C45.5 12.1259 35.8741 2.5 24 2.5C12.1259 2.5 2.5 12.1259 2.5 24C2.5 35.8741 12.1259 45.5 24 45.5Z" stroke="black" stroke-linecap="round" stroke-linejoin="round"/>
</svg>
